<mxfile host="app.diagrams.net" modified="2023-06-28T17:55:02.359Z" agent="Mozilla/5.0 (Windows NT 10.0; Win64; x64) AppleWebKit/537.36 (KHTML, like Gecko) Chrome/114.0.0.0 Safari/537.36" etag="lwDYWLMwGfe8wk1nCuup" version="21.5.1" type="device">
  <diagram name="Page-1" id="10a91c8b-09ff-31b1-d368-03940ed4cc9e">
    <mxGraphModel dx="1461" dy="668" grid="1" gridSize="10" guides="1" tooltips="1" connect="1" arrows="1" fold="1" page="1" pageScale="1" pageWidth="1100" pageHeight="850" background="none" math="0" shadow="0">
      <root>
        <mxCell id="0" />
        <mxCell id="1" parent="0" />
        <mxCell id="ljsfis1CIRC_pwl8-5nV-2" value="szczyt" style="ellipse;whiteSpace=wrap;html=1;aspect=fixed;" parent="1" vertex="1">
          <mxGeometry x="470" y="40" width="80" height="80" as="geometry" />
        </mxCell>
        <mxCell id="ljsfis1CIRC_pwl8-5nV-6" value="1&lt;br&gt;☆2" style="ellipse;whiteSpace=wrap;html=1;aspect=fixed;" parent="1" vertex="1">
          <mxGeometry x="830" y="150" width="50" height="50" as="geometry" />
        </mxCell>
        <mxCell id="ljsfis1CIRC_pwl8-5nV-13" value="" style="endArrow=none;html=1;rounded=0;exitX=0.5;exitY=0;exitDx=0;exitDy=0;entryX=0.5;entryY=1;entryDx=0;entryDy=0;" parent="1" source="ljsfis1CIRC_pwl8-5nV-6" target="ljsfis1CIRC_pwl8-5nV-2" edge="1">
          <mxGeometry width="50" height="50" relative="1" as="geometry">
            <mxPoint x="610" y="250" as="sourcePoint" />
            <mxPoint x="610" y="120" as="targetPoint" />
          </mxGeometry>
        </mxCell>
        <mxCell id="ljsfis1CIRC_pwl8-5nV-14" value="2&lt;br&gt;☆2" style="ellipse;whiteSpace=wrap;html=1;aspect=fixed;" parent="1" vertex="1">
          <mxGeometry x="870" y="229" width="50" height="50" as="geometry" />
        </mxCell>
        <mxCell id="ljsfis1CIRC_pwl8-5nV-15" value="" style="endArrow=none;html=1;rounded=0;entryX=0.5;entryY=1;entryDx=0;entryDy=0;exitX=0.5;exitY=0;exitDx=0;exitDy=0;" parent="1" source="ljsfis1CIRC_pwl8-5nV-14" target="ljsfis1CIRC_pwl8-5nV-6" edge="1">
          <mxGeometry width="50" height="50" relative="1" as="geometry">
            <mxPoint x="700" y="249" as="sourcePoint" />
            <mxPoint x="700" y="119" as="targetPoint" />
          </mxGeometry>
        </mxCell>
        <mxCell id="ljsfis1CIRC_pwl8-5nV-16" value="3&lt;br&gt;☆4&lt;br&gt;" style="ellipse;whiteSpace=wrap;html=1;aspect=fixed;" parent="1" vertex="1">
          <mxGeometry x="800" y="309" width="50" height="50" as="geometry" />
        </mxCell>
        <mxCell id="ljsfis1CIRC_pwl8-5nV-17" value="4&lt;br&gt;☆1" style="ellipse;whiteSpace=wrap;html=1;aspect=fixed;" parent="1" vertex="1">
          <mxGeometry x="950" y="309" width="50" height="50" as="geometry" />
        </mxCell>
        <mxCell id="ljsfis1CIRC_pwl8-5nV-19" value="" style="endArrow=none;html=1;rounded=0;entryX=1;entryY=0;entryDx=0;entryDy=0;exitX=0.5;exitY=1;exitDx=0;exitDy=0;" parent="1" source="ljsfis1CIRC_pwl8-5nV-14" target="ljsfis1CIRC_pwl8-5nV-16" edge="1">
          <mxGeometry width="50" height="50" relative="1" as="geometry">
            <mxPoint x="900" y="249" as="sourcePoint" />
            <mxPoint x="860" y="209" as="targetPoint" />
          </mxGeometry>
        </mxCell>
        <mxCell id="ljsfis1CIRC_pwl8-5nV-21" value="" style="endArrow=none;html=1;rounded=0;entryX=0.5;entryY=0;entryDx=0;entryDy=0;exitX=0.5;exitY=1;exitDx=0;exitDy=0;" parent="1" source="ljsfis1CIRC_pwl8-5nV-14" target="ljsfis1CIRC_pwl8-5nV-17" edge="1">
          <mxGeometry width="50" height="50" relative="1" as="geometry">
            <mxPoint x="900" y="289" as="sourcePoint" />
            <mxPoint x="834" y="335" as="targetPoint" />
          </mxGeometry>
        </mxCell>
        <mxCell id="QgLAGEsvM134K-R6bCuo-1" value="5&lt;br&gt;☆5&lt;br&gt;podn" style="ellipse;whiteSpace=wrap;html=1;aspect=fixed;" vertex="1" parent="1">
          <mxGeometry x="730" y="390" width="50" height="50" as="geometry" />
        </mxCell>
        <mxCell id="QgLAGEsvM134K-R6bCuo-2" value="6&lt;br&gt;☆2&lt;br&gt;podn" style="ellipse;whiteSpace=wrap;html=1;aspect=fixed;" vertex="1" parent="1">
          <mxGeometry x="860" y="389" width="50" height="50" as="geometry" />
        </mxCell>
        <mxCell id="QgLAGEsvM134K-R6bCuo-3" value="" style="endArrow=none;html=1;rounded=0;entryX=0.5;entryY=0;entryDx=0;entryDy=0;exitX=0.5;exitY=1;exitDx=0;exitDy=0;" edge="1" parent="1" source="ljsfis1CIRC_pwl8-5nV-16" target="QgLAGEsvM134K-R6bCuo-1">
          <mxGeometry width="50" height="50" relative="1" as="geometry">
            <mxPoint x="800" y="350" as="sourcePoint" />
            <mxPoint x="748" y="397" as="targetPoint" />
          </mxGeometry>
        </mxCell>
        <mxCell id="QgLAGEsvM134K-R6bCuo-4" value="" style="endArrow=none;html=1;rounded=0;entryX=0.5;entryY=1;entryDx=0;entryDy=0;exitX=0.5;exitY=0;exitDx=0;exitDy=0;" edge="1" parent="1" source="QgLAGEsvM134K-R6bCuo-2" target="ljsfis1CIRC_pwl8-5nV-16">
          <mxGeometry width="50" height="50" relative="1" as="geometry">
            <mxPoint x="920" y="349" as="sourcePoint" />
            <mxPoint x="850" y="370" as="targetPoint" />
          </mxGeometry>
        </mxCell>
        <mxCell id="QgLAGEsvM134K-R6bCuo-5" value="7&lt;br&gt;☆5" style="ellipse;whiteSpace=wrap;html=1;aspect=fixed;" vertex="1" parent="1">
          <mxGeometry x="485" y="150" width="50" height="50" as="geometry" />
        </mxCell>
        <mxCell id="QgLAGEsvM134K-R6bCuo-7" value="" style="endArrow=none;html=1;rounded=0;entryX=0.5;entryY=1;entryDx=0;entryDy=0;" edge="1" parent="1" source="QgLAGEsvM134K-R6bCuo-5" target="ljsfis1CIRC_pwl8-5nV-2">
          <mxGeometry width="50" height="50" relative="1" as="geometry">
            <mxPoint x="905" y="239" as="sourcePoint" />
            <mxPoint x="865" y="210" as="targetPoint" />
          </mxGeometry>
        </mxCell>
        <mxCell id="QgLAGEsvM134K-R6bCuo-8" value="8&lt;br&gt;☆4" style="ellipse;whiteSpace=wrap;html=1;aspect=fixed;" vertex="1" parent="1">
          <mxGeometry x="410" y="229" width="50" height="50" as="geometry" />
        </mxCell>
        <mxCell id="QgLAGEsvM134K-R6bCuo-9" value="9&lt;br&gt;☆1" style="ellipse;whiteSpace=wrap;html=1;aspect=fixed;" vertex="1" parent="1">
          <mxGeometry x="560" y="229" width="50" height="50" as="geometry" />
        </mxCell>
        <mxCell id="QgLAGEsvM134K-R6bCuo-10" value="" style="endArrow=none;html=1;rounded=0;entryX=1;entryY=0;entryDx=0;entryDy=0;exitX=0.5;exitY=1;exitDx=0;exitDy=0;" edge="1" parent="1" target="QgLAGEsvM134K-R6bCuo-8">
          <mxGeometry width="50" height="50" relative="1" as="geometry">
            <mxPoint x="505" y="200" as="sourcePoint" />
            <mxPoint x="470" y="130" as="targetPoint" />
          </mxGeometry>
        </mxCell>
        <mxCell id="QgLAGEsvM134K-R6bCuo-11" value="" style="endArrow=none;html=1;rounded=0;entryX=0.5;entryY=0;entryDx=0;entryDy=0;exitX=0.5;exitY=1;exitDx=0;exitDy=0;" edge="1" parent="1" target="QgLAGEsvM134K-R6bCuo-9" source="QgLAGEsvM134K-R6bCuo-5">
          <mxGeometry width="50" height="50" relative="1" as="geometry">
            <mxPoint x="505" y="200" as="sourcePoint" />
            <mxPoint x="444" y="256" as="targetPoint" />
          </mxGeometry>
        </mxCell>
        <mxCell id="QgLAGEsvM134K-R6bCuo-12" value="10&lt;br&gt;☆4" style="ellipse;whiteSpace=wrap;html=1;aspect=fixed;" vertex="1" parent="1">
          <mxGeometry x="340" y="309" width="50" height="50" as="geometry" />
        </mxCell>
        <mxCell id="QgLAGEsvM134K-R6bCuo-13" value="11&lt;br&gt;☆1" style="ellipse;whiteSpace=wrap;html=1;aspect=fixed;" vertex="1" parent="1">
          <mxGeometry x="490" y="309" width="50" height="50" as="geometry" />
        </mxCell>
        <mxCell id="QgLAGEsvM134K-R6bCuo-14" value="" style="endArrow=none;html=1;rounded=0;entryX=1;entryY=0;entryDx=0;entryDy=0;" edge="1" parent="1" target="QgLAGEsvM134K-R6bCuo-12">
          <mxGeometry width="50" height="50" relative="1" as="geometry">
            <mxPoint x="435" y="280" as="sourcePoint" />
            <mxPoint x="400" y="211" as="targetPoint" />
          </mxGeometry>
        </mxCell>
        <mxCell id="QgLAGEsvM134K-R6bCuo-15" value="" style="endArrow=none;html=1;rounded=0;entryX=0.5;entryY=0;entryDx=0;entryDy=0;" edge="1" parent="1" target="QgLAGEsvM134K-R6bCuo-13">
          <mxGeometry width="50" height="50" relative="1" as="geometry">
            <mxPoint x="440" y="280" as="sourcePoint" />
            <mxPoint x="374" y="337" as="targetPoint" />
          </mxGeometry>
        </mxCell>
        <mxCell id="QgLAGEsvM134K-R6bCuo-20" value="12&lt;br&gt;☆3&lt;br&gt;podn" style="ellipse;whiteSpace=wrap;html=1;aspect=fixed;" vertex="1" parent="1">
          <mxGeometry x="425" y="389" width="50" height="50" as="geometry" />
        </mxCell>
        <mxCell id="QgLAGEsvM134K-R6bCuo-21" value="13&lt;br&gt;☆2&lt;br&gt;podn" style="ellipse;whiteSpace=wrap;html=1;aspect=fixed;" vertex="1" parent="1">
          <mxGeometry x="555" y="389" width="50" height="50" as="geometry" />
        </mxCell>
        <mxCell id="QgLAGEsvM134K-R6bCuo-22" value="" style="endArrow=none;html=1;rounded=0;entryX=0.5;entryY=0;entryDx=0;entryDy=0;exitX=0.5;exitY=1;exitDx=0;exitDy=0;" edge="1" parent="1" target="QgLAGEsvM134K-R6bCuo-20" source="QgLAGEsvM134K-R6bCuo-13">
          <mxGeometry width="50" height="50" relative="1" as="geometry">
            <mxPoint x="510" y="370" as="sourcePoint" />
            <mxPoint x="443" y="399" as="targetPoint" />
          </mxGeometry>
        </mxCell>
        <mxCell id="QgLAGEsvM134K-R6bCuo-23" value="" style="endArrow=none;html=1;rounded=0;entryX=0.5;entryY=1;entryDx=0;entryDy=0;exitX=0.5;exitY=0;exitDx=0;exitDy=0;" edge="1" parent="1" source="QgLAGEsvM134K-R6bCuo-21" target="QgLAGEsvM134K-R6bCuo-13">
          <mxGeometry width="50" height="50" relative="1" as="geometry">
            <mxPoint x="615" y="351" as="sourcePoint" />
            <mxPoint x="520" y="362" as="targetPoint" />
          </mxGeometry>
        </mxCell>
        <mxCell id="QgLAGEsvM134K-R6bCuo-25" value="" style="endArrow=none;html=1;rounded=0;exitX=0.5;exitY=1;exitDx=0;exitDy=0;entryX=0.5;entryY=0;entryDx=0;entryDy=0;" edge="1" parent="1" source="ljsfis1CIRC_pwl8-5nV-2" target="QgLAGEsvM134K-R6bCuo-26">
          <mxGeometry width="50" height="50" relative="1" as="geometry">
            <mxPoint x="515" y="210" as="sourcePoint" />
            <mxPoint x="280" y="140" as="targetPoint" />
          </mxGeometry>
        </mxCell>
        <mxCell id="QgLAGEsvM134K-R6bCuo-26" value="14&lt;br&gt;☆5" style="ellipse;whiteSpace=wrap;html=1;aspect=fixed;" vertex="1" parent="1">
          <mxGeometry x="160" y="150" width="50" height="50" as="geometry" />
        </mxCell>
        <mxCell id="QgLAGEsvM134K-R6bCuo-27" value="15&lt;br&gt;☆5" style="ellipse;whiteSpace=wrap;html=1;aspect=fixed;" vertex="1" parent="1">
          <mxGeometry x="160" y="229" width="50" height="50" as="geometry" />
        </mxCell>
        <mxCell id="QgLAGEsvM134K-R6bCuo-29" value="16&lt;br&gt;☆5" style="ellipse;whiteSpace=wrap;html=1;aspect=fixed;" vertex="1" parent="1">
          <mxGeometry x="160" y="309" width="50" height="50" as="geometry" />
        </mxCell>
        <mxCell id="QgLAGEsvM134K-R6bCuo-32" value="" style="endArrow=none;html=1;rounded=0;entryX=0.5;entryY=1;entryDx=0;entryDy=0;exitX=0.5;exitY=0;exitDx=0;exitDy=0;" edge="1" parent="1" source="QgLAGEsvM134K-R6bCuo-27" target="QgLAGEsvM134K-R6bCuo-26">
          <mxGeometry width="50" height="50" relative="1" as="geometry">
            <mxPoint x="520" y="160" as="sourcePoint" />
            <mxPoint x="520" y="130" as="targetPoint" />
          </mxGeometry>
        </mxCell>
        <mxCell id="QgLAGEsvM134K-R6bCuo-33" value="" style="endArrow=none;html=1;rounded=0;entryX=0.5;entryY=1;entryDx=0;entryDy=0;exitX=0.5;exitY=0;exitDx=0;exitDy=0;" edge="1" parent="1" source="QgLAGEsvM134K-R6bCuo-29" target="QgLAGEsvM134K-R6bCuo-27">
          <mxGeometry width="50" height="50" relative="1" as="geometry">
            <mxPoint x="195" y="239" as="sourcePoint" />
            <mxPoint x="195" y="210" as="targetPoint" />
          </mxGeometry>
        </mxCell>
      </root>
    </mxGraphModel>
  </diagram>
</mxfile>
